<?xml version="1.0" encoding="UTF-8" standalone="no"?>
<!-- Created with Inkscape (http://www.inkscape.org/) -->

<svg
   width="210mm"
   height="210mm"
   viewBox="0 0 210 210"
   version="1.1"
   id="svg1"
   xml:space="preserve"
   inkscape:version="1.4.4 (dcaf3e7, 2026-05-05)"
   sodipodi:docname="lantana-logo.svg"
   inkscape:export-filename="lantana-logo.png"
   inkscape:export-xdpi="96"
   inkscape:export-ydpi="96"
   xmlns:inkscape="http://www.inkscape.org/namespaces/inkscape"
   xmlns:sodipodi="http://sodipodi.sourceforge.net/DTD/sodipodi-0.dtd"
   xmlns="http://www.w3.org/2000/svg"
   xmlns:svg="http://www.w3.org/2000/svg"
   xmlns:rdf="http://www.w3.org/1999/02/22-rdf-syntax-ns#"
   xmlns:cc="http://creativecommons.org/ns#"
   xmlns:dc="http://purl.org/dc/elements/1.1/"><title
     id="title1">Lantana Logo</title><sodipodi:namedview
     id="namedview1"
     pagecolor="#ffffff"
     bordercolor="#000000"
     borderopacity="0.25"
     inkscape:showpageshadow="2"
     inkscape:pageopacity="0.0"
     inkscape:pagecheckerboard="0"
     inkscape:deskcolor="#d1d1d1"
     inkscape:document-units="mm"
     inkscape:zoom="0.63559753"
     inkscape:cx="401.19728"
     inkscape:cy="255.66493"
     inkscape:window-width="1171"
     inkscape:window-height="1186"
     inkscape:window-x="1306"
     inkscape:window-y="86"
     inkscape:window-maximized="0"
     inkscape:current-layer="layer1" /><defs
     id="defs1" /><g
     inkscape:label="Layer 1"
     inkscape:groupmode="layer"
     id="layer1"><g
       id="g30"
       transform="matrix(1.1400593,0,0,1.1400593,-15.942171,-11.463859)"><path
         style="fill:#cae918;fill-opacity:1;stroke:#cae918;stroke-width:1.67986;stroke-opacity:1"
         d="m 396.77568,433.76862 c -5.66487,-1.93711 -8.46086,-7.75481 -6.75391,-14.05308 l 0.8614,-3.17837 -5.24738,-5.31224 c -5.00619,-5.06809 -5.37479,-5.28655 -8.01952,-4.75312 -1.52468,0.30753 -3.99288,0.48024 -5.48489,0.38382 -10.18734,-0.65841 -13.0166,-15.53541 -3.85543,-20.27284 1.93069,-0.9984 3.71765,-1.20841 7.37572,-0.86681 l 4.8277,0.45082 4.84025,-4.88366 4.84025,-4.88366 -0.4807,-5.14774 c -0.37231,-3.98696 -0.18359,-5.7223 0.83693,-7.69575 3.93558,-7.61058 16.55488,-7.4403 19.77512,0.26683 1.37053,3.28014 1.4392,6.36721 0.21945,9.86617 -0.90544,2.59735 -0.86845,2.66201 4.35399,7.60977 l 5.26718,4.99017 4.94323,-0.50645 c 3.82677,-0.39207 5.51632,-0.21009 7.48072,0.80574 3.33725,1.72576 5.6108,5.58094 5.60003,9.49576 -0.0113,4.09723 -1.34108,6.60551 -4.70328,8.8713 -2.30633,1.55423 -3.55407,1.80485 -8.06816,1.62056 l -5.33991,-0.21801 -5.20298,5.20297 c -5.10372,5.10372 -5.18594,5.25182 -4.31029,7.76371 3.27694,9.40026 -4.53056,17.5986 -13.75552,14.44411 z m 15.84609,-25.49139 4.39942,-4.32664 -0.51169,-4.48691 c -0.31692,-2.77898 -0.15049,-5.58135 0.43721,-7.3621 l 0.94889,-2.87518 -5.00585,-5.07171 -5.00585,-5.07171 -4.48691,0.51024 c -2.7767,0.31575 -5.58326,0.14841 -7.36325,-0.43904 l -2.87634,-0.94928 -5.34827,5.30729 -5.34827,5.30729 1.16185,3.23892 c 1.10309,3.0751 1.05553,6.3065 -0.13719,9.32157 -0.39335,0.99435 0.74642,2.70137 4.21676,6.31536 l 4.75581,4.95269 7.88213,-0.0221 7.88214,-0.0221 z"
         id="path25"
         transform="scale(0.26458333)" /><path
         style="fill:#cae918;fill-opacity:1;stroke-width:0.481954"
         d="m 97.953307,136.50671 c -1.40731,-0.9982 -2.829059,-2.12311 -3.159439,-2.49982 -0.955317,-1.08926 -2.35934,-6.40381 -2.710803,-10.26101 l -0.130339,-1.4304 2.196209,-2.80488 c 1.207912,-1.5427 2.443363,-3.04058 2.745445,-3.32863 l 0.549237,-0.52375 1.979218,0.62508 c 1.881065,0.59409 2.205405,0.62513 6.540465,0.62599 4.25915,8.8e-4 4.68918,-0.0383 6.493,-0.59051 l 1.93176,-0.59142 0.42053,0.48917 c 0.63251,0.73574 3.2319,4.25483 3.9095,5.2927 0.43658,0.66873 0.59518,1.20035 0.59518,1.99507 0,1.46883 -0.71109,5.07811 -1.54148,7.82412 -0.37593,1.24315 -0.68351,2.28674 -0.68351,2.31908 0,0.10789 -2.53575,2.03541 -4.43608,3.37204 l -1.87733,1.32046 -5.13142,-0.009 -5.13139,-0.009 z"
         id="path26" /><path
         style="fill:#cae918;fill-opacity:1;stroke-width:0.483289"
         d="m 122.19789,116.59918 c -3.54701,-2.76334 -4.29609,-3.48729 -4.29126,-4.14734 0.002,-0.33382 0.15114,-1.42448 0.33046,-2.42368 0.42494,-2.36805 0.42822,-7.40783 0.006,-9.99211 -0.18343,-1.124117 -0.3353,-2.267018 -0.33747,-2.53978 -0.003,-0.350711 0.8617,-1.280899 2.95213,-3.176527 l 2.95606,-2.68059 1.49853,0.07029 c 2.51635,0.118036 4.54269,0.466282 7.10716,1.221438 l 2.45097,0.721731 2.00363,2.671494 2.0036,2.671492 v 5.252052 5.25205 l -1.60006,2.34533 c -0.88005,1.28994 -1.82499,2.55809 -2.09991,2.81812 -0.99063,0.93702 -8.47401,3.42829 -10.28404,3.42364 -0.62579,-0.002 -1.18465,-0.30994 -2.6963,-1.48761 z"
         id="path29" /><path
         style="fill:#cae918;fill-opacity:1;stroke-width:0.480736"
         d="m 97.177735,92.681671 c -0.8996,-0.992907 -3.469946,-4.539225 -3.880624,-5.354116 -0.324501,-0.643889 -0.337161,-0.965956 -0.105485,-2.683395 0.328357,-2.434184 1.452484,-7.328486 1.875531,-8.165816 0.303628,-0.600969 1.518192,-1.679187 4.531548,-4.022848 l 1.392185,-1.082792 5.0197,0.164055 5.0197,0.164055 2.36669,1.927046 c 1.30167,1.059877 2.49496,2.052029 2.65173,2.204785 0.61068,0.595036 2.49299,8.698195 2.49299,10.732054 0,0.451698 -2.50535,4.234407 -4.04185,6.102615 l -0.51413,0.625108 -1.65764,-0.443579 c -4.60748,-1.232938 -9.27832,-1.121251 -14.12403,0.337726 -0.312305,0.09403 -0.621466,-0.05807 -1.02631,-0.504898 z"
         id="path28" /><path
         style="fill:#cae918;fill-opacity:1;stroke-width:0.474057"
         d="m 83.75218,116.7832 c -1.290174,-0.3435 -3.492115,-1.04844 -4.893197,-1.56652 l -2.547428,-0.94196 -1.809006,-2.7635 -1.809005,-2.76349 0.0808,-4.95414 0.0808,-4.954134 1.483043,-2.011407 c 2.229773,-3.024174 2.341785,-3.144681 3.287333,-3.536623 1.631137,-0.676127 4.88526,-1.395942 7.52254,-1.663994 l 2.624631,-0.266764 2.513725,2.100728 c 1.382549,1.155399 2.834759,2.432357 3.22713,2.837685 l 0.713406,0.73696 -0.447659,2.53683 c -0.529168,2.998729 -0.612382,7.123499 -0.204651,10.144189 l 0.282449,2.09253 -1.171307,0.99579 c -2.338761,1.98831 -5.920357,4.6352 -6.250107,4.61898 -0.185755,-0.009 -1.393335,-0.29765 -2.683507,-0.64116 z"
         id="path27" /><path
         style="fill:#cae918;fill-opacity:1;stroke-width:0.472567"
         d="m 133.2858,86.451316 c -4.32948,-1.756434 -5.78673,-2.204038 -7.17562,-2.204038 -0.70106,0 -0.7698,-0.0652 -0.99431,-0.943002 -0.36708,-1.435311 -1.70266,-5.483568 -2.89751,-8.782694 l -1.07141,-2.958268 1.2206,-2.398892 c 2.24273,-4.40767 5.26974,-8.931828 8.35726,-12.490668 l 1.48785,-1.715001 h 6.11555 6.11557 l 1.53091,1.550898 6.12554,6.148647 2.62016,2.618004 -0.13645,5.768951 -0.13642,5.768953 -1.69706,1.625886 c -1.96824,1.885687 -5.76552,4.808907 -8.35662,6.433077 -3.08537,1.933995 -5.79049,3.368946 -6.308,3.346113 -0.27285,-0.01204 -2.43287,-0.807623 -4.80004,-1.767966 z"
         id="path24"
         sodipodi:nodetypes="sssscssccccccccssss" /><path
         style="fill:#cae918;fill-opacity:1;stroke-width:0.472413"
         d="m 154.20323,120.90308 c -0.51858,-0.27428 -10.70959,-6.19985 -10.91879,-6.34874 -0.0271,-0.0193 0.35719,-0.8064 0.85391,-1.7492 l 0.90313,-1.71419 -0.0322,-7.25953 -0.0322,-7.259543 -0.9881,-1.593967 c -0.54346,-0.876682 -0.98811,-1.709305 -0.98811,-1.850273 0,-0.279549 2.79523,-2.267971 8.31526,-5.915169 l 3.54595,-2.342881 h 4.44218 4.44217 l 3.93515,3.918331 3.93513,3.918334 v 4.431894 11.837094 4.69065 l -3.82885,3.80342 -3.82884,3.80341 -4.54517,-0.008 c -3.72264,-0.007 -4.6656,-0.0725 -5.21065,-0.36081 z"
         id="path23"
         sodipodi:nodetypes="ssscccsssccccccccccss" /><path
         style="fill:#cae918;fill-opacity:1;stroke-width:0.47105"
         d="m 130.10955,149.2471 c -2.2544,-2.68464 -4.9235,-6.25868 -6.94611,-9.30112 l -1.38134,-2.07781 0.89716,-2.40944 c 0.98568,-2.64719 2.77962,-8.60437 2.99887,-9.95836 l 0.13892,-0.85806 1.69456,-0.36349 c 1.93438,-0.41491 5.52595,-1.77668 9.27852,-3.51801 l 2.57583,-1.19527 3.46599,1.69849 c 3.655,1.7911 6.85162,3.79091 10.06963,6.29956 l 1.94224,1.51411 v 5.71616 5.71617 l -2.44305,2.40521 -2.44305,2.40523 -2.0021,1.97769 -2.10658,2.08253 -2.1066,2.08252 -5.82532,0.0723 -5.82533,0.0723 z"
         id="path22"
         sodipodi:nodetypes="sscsscsscssccccccccccs" /><path
         style="fill:#cae918;fill-opacity:1;stroke-width:0.470589"
         d="m 92.161892,165.24492 -3.962106,-4.08231 v -4.79 -4.79001 l 3.090808,-4.98884 c 1.699943,-2.74388 3.157003,-4.98886 3.237915,-4.98886 0.08091,0 0.977518,0.50303 1.992461,1.11784 l 1.845349,1.11784 h 7.281211 7.2812 l 1.75116,-1.11784 c 0.96315,-0.61481 1.84463,-1.11784 1.95886,-1.11784 0.23847,0 2.68124,3.58027 5.09695,7.47038 l 1.65411,2.66368 v 4.71631 4.71629 l -3.96644,4.07783 -3.96647,4.07784 h -4.17938 -4.17939 -2.60666 -4.18374 -4.183728 z"
         id="path18"
         sodipodi:nodetypes="ccccssscccsssccccccccccc" /><path
         style="fill:#cae918;fill-opacity:1;stroke-width:0.470017"
         d="m 65.673913,149.37252 -2.194899,-2.20206 c 0,0 -1.862421,-2.19736 -1.987527,-2.19736 -0.125109,0 -1.19156,-0.96723 -2.369894,-2.1494 l -2.142428,-2.14942 v -5.85226 -5.85226 l 1.060001,-0.99101 c 2.456219,-2.29635 7.349175,-5.62399 11.634922,-7.91277 l 2.093051,-1.11778 4.329521,2.10825 c 4.924772,2.39812 6.032734,2.85699 7.760459,3.21406 l 1.229338,0.25407 0.263543,1.42957 c 0.27218,1.47644 1.805283,6.30724 3.184158,10.03327 l 0.787048,2.12679 -1.048798,1.72408 c -2.115233,3.47711 -4.049365,6.18997 -6.360647,8.92159 l -2.366219,2.79655 -5.838366,0.009 -5.838364,0.009 z"
         id="path19"
         sodipodi:nodetypes="ccsscccsscsscsscsscccc" /><path
         style="fill:#cae918;fill-opacity:1;stroke-width:0.470747"
         d="m 43.865404,117.03684 -3.89255,-3.72077 v -4.4935 -4.4935 -2.59423 -4.44947 -4.449461 l 3.864637,-3.872899 3.864638,-3.872898 h 4.534639 4.534636 l 2.897467,1.751764 c 3.420961,2.068261 8.3631,5.285649 8.887281,5.785717 0.342559,0.326805 0.29029,0.478826 -0.715804,2.081871 l -1.085352,1.729322 -0.05469,6.973284 -0.0547,6.9733 0.882904,1.62819 c 0.746263,1.37621 0.830714,1.6583 0.545688,1.82272 -0.185471,0.10697 -2.814954,1.70799 -5.843296,3.55781 l -5.50608,3.36328 H 52.241389 47.75795 Z"
         id="path20"
         sodipodi:nodetypes="cccccccccccssscccssccccc" /><path
         style="fill:#cae918;fill-opacity:1;stroke-width:0.465604"
         d="m 70.189918,86.059919 c -4.945929,-2.774533 -8.330369,-5.170408 -11.29143,-7.993303 l -1.400511,-1.335161 v -5.68835 -5.688351 l 2.491778,-2.46683 c 1.370476,-1.356753 2.576758,-2.430557 2.680624,-2.386225 0.103867,0.04433 1.754746,-2.233171 1.754746,-2.233171 l 1.624145,-1.494047 1.624141,-1.494047 6.017732,8.29e-4 6.017732,8.27e-4 1.663121,1.998457 c 3.256616,3.913238 5.363064,7.043225 7.70501,11.448917 l 1.443565,2.715652 -1.830072,4.888165 c -1.00654,2.688493 -1.954585,5.486728 -2.106767,6.218301 l -0.276691,1.330134 -1.548471,0.138746 c -1.075593,0.09638 -3.048028,0.6425 -6.458878,1.788336 -2.700722,0.90728 -5.014812,1.680238 -5.142423,1.717689 -0.127612,0.03745 -1.462917,-0.62241 -2.967351,-1.466353 z"
         id="path21"
         sodipodi:nodetypes="cscccsscccccsscsscssscc" /><path
         style="fill:#cae918;fill-opacity:1;stroke-width:1.35103"
         d="m 92.020016,62.17817 c -3.548966,-5.787951 -3.56759,-5.844462 -3.56759,-10.82696 v -5.008642 l 3.860319,-4.406418 3.860316,-4.406417 h 3.991489 c 3.74019,0.0041 7.48037,0 11.22056,0 h 4.08837 l 4.05662,4.301341 4.0566,4.301344 0.0209,5.128644 c 0.0209,5.112048 0.009,5.146063 -3.32672,10.514392 -2.61017,4.199326 -3.61337,5.328275 -4.55404,5.124833 -0.66355,-0.143504 -4.83551,-0.374862 -9.27107,-0.514125 -6.34025,-0.199062 -8.364367,-0.05397 -9.466404,0.678563 -1.361379,0.90492 -1.504539,0.764146 -4.969349,-4.886555 z"
         id="path17"
         sodipodi:nodetypes="ssccccccccccsssss" /><circle
         style="fill:#ffffff;fill-opacity:1;stroke:none;stroke-width:0.402877;stroke-opacity:1"
         id="path30"
         cx="140.13901"
         cy="68.276482"
         r="2.5601435" /><circle
         style="fill:#ffffff;fill-opacity:1;stroke:none;stroke-width:0.402877;stroke-opacity:1"
         id="path30-0"
         cx="105.93835"
         cy="49.92598"
         r="2.5601435" /><circle
         style="fill:#ffffff;fill-opacity:1;stroke:none;stroke-width:0.402877;stroke-opacity:1"
         id="path30-0-8"
         cx="71.879387"
         cy="68.185738"
         r="2.5601435" /><circle
         style="fill:#ffffff;fill-opacity:1;stroke:none;stroke-width:0.402877;stroke-opacity:1"
         id="path30-0-2"
         cx="52.23484"
         cy="103.11573"
         r="2.5601435" /><circle
         style="fill:#ffffff;fill-opacity:1;stroke:none;stroke-width:0.402877;stroke-opacity:1"
         id="path30-0-1"
         cx="71.558525"
         cy="137.08421"
         r="2.5601435" /><circle
         style="fill:#ffffff;fill-opacity:1;stroke:none;stroke-width:0.402877;stroke-opacity:1"
         id="path30-0-0"
         cx="105.76744"
         cy="157.53345"
         r="2.5601435" /><circle
         style="fill:#ffffff;fill-opacity:1;stroke:none;stroke-width:0.402877;stroke-opacity:1"
         id="path30-0-00"
         cx="139.90715"
         cy="137.11882"
         r="2.5601435" /><circle
         style="fill:#ffffff;fill-opacity:1;stroke:none;stroke-width:0.402877;stroke-opacity:1"
         id="path30-0-85"
         cx="159.62741"
         cy="103.03305"
         r="2.5601435" /><circle
         style="fill:#ffffff;fill-opacity:1;stroke:none;stroke-width:0.402877;stroke-opacity:1"
         id="path30-0-05"
         cx="161.69633"
         cy="45.789909"
         r="2.5601435" /><circle
         style="fill:#ffffff;fill-opacity:1;stroke:none;stroke-width:0.402877;stroke-opacity:1"
         id="path30-0-08"
         cx="188.80566"
         cy="102.75963"
         r="2.5601435" /><circle
         style="fill:#ffffff;fill-opacity:1;stroke:none;stroke-width:0.402877;stroke-opacity:1"
         id="path30-0-4"
         cx="160.10193"
         cy="157.52306"
         r="2.5601435" /><circle
         style="fill:#ffffff;fill-opacity:1;stroke:none;stroke-width:0.402877;stroke-opacity:1"
         id="path30-0-40"
         cx="105.7336"
         cy="20.860212"
         r="2.5601435" /><circle
         style="fill:#ffffff;fill-opacity:1;stroke:none;stroke-width:0.402877;stroke-opacity:1"
         id="path30-0-5"
         cx="50.839535"
         cy="45.834957"
         r="2.5601435" /><circle
         style="fill:#ffffff;fill-opacity:1;stroke:none;stroke-width:0.402877;stroke-opacity:1"
         id="path30-0-56"
         cx="23.488808"
         cy="103.03133"
         r="2.5601435" /><circle
         style="fill:#ffffff;fill-opacity:1;stroke:none;stroke-width:0.402877;stroke-opacity:1"
         id="path30-0-855"
         cx="50.922451"
         cy="157.65359"
         r="2.5601435" /><circle
         style="fill:#ffffff;fill-opacity:1;stroke:none;stroke-width:0.402877;stroke-opacity:1"
         id="path30-0-9"
         cx="105.93365"
         cy="183.47636"
         r="2.5601435" /><path
         style="fill:#1a1a1a;stroke-width:1.51233"
         d="m 104.58268,187.38971 c -1.44134,-0.51506 -2.42321,-1.66817 -2.7327,-3.20928 -0.15863,-0.78993 -0.14277,-1.11896 0.0927,-1.92896 0.33166,-1.14086 1.35683,-2.36625 2.24974,-2.68914 l 0.58091,-0.21005 v -4.06796 -4.06795 h -4.51428 -4.514245 l -0.82727,-0.66499 c -0.45499,-0.36575 -2.53868,-2.38875 -4.630425,-4.49558 l -3.80317,-3.8306 v -5.50542 -5.50544 l 1.833043,-2.94685 c 1.00818,-1.62077 2.742202,-4.31776 3.853382,-5.99331 l 2.02033,-3.04646 0.63351,0.37588 c 0.34843,0.20673 1.49545,0.86614 2.54893,1.46537 l 1.91543,1.08948 h 6.475185 6.4752 l 2.4383,-1.45289 c 1.34106,-0.79909 2.48804,-1.44892 2.54882,-1.44407 0.15305,0.0122 1.80041,2.37823 5.27409,7.57489 l 2.95556,4.42152 v 5.40336 5.40335 l -4.57588,4.57588 -4.57587,4.57588 h -4.65429 -4.65429 v 4.01454 4.01452 l 0.64098,0.26776 c 2.01944,0.84356 3.04611,3.58974 2.11145,5.6477 -0.87514,1.92685 -3.20125,2.93062 -5.16508,2.22882 z m 2.1504,-2.22917 c 1.40443,-0.58682 1.4648,-2.7218 0.097,-3.42915 -0.83613,-0.43239 -1.50471,-0.33274 -2.15931,0.32186 -0.4839,0.48392 -0.58115,0.70638 -0.58115,1.32942 0,0.88177 0.35112,1.45351 1.09023,1.77518 0.68306,0.29728 0.84755,0.29757 1.5533,0.003 z m -1.95982,-20.06327 v -3.55517 l -0.59499,-0.21516 c -1.12792,-0.40786 -2.18494,-1.8266 -2.41014,-3.23486 -0.25033,-1.56554 0.84039,-3.54806 2.39523,-4.35364 0.96024,-0.49751 2.65463,-0.49645 3.61734,0.001 0.82751,0.42871 1.67835,1.35037 2.03532,2.20473 0.3287,0.78665 0.3287,2.40653 0,3.19317 -0.37531,0.89829 -1.26584,1.83391 -2.09424,2.20037 l -0.72645,0.32133 v 3.49605 3.49604 h 4.14363 4.14363 l 3.80457,-3.80173 3.80457,-3.80175 v -4.44905 -4.44905 l -1.06831,-1.71793 c -1.45441,-2.33882 -5.2629,-7.93262 -5.40083,-7.93254 -0.0614,2e-5 -0.91347,0.49998 -1.8935,1.11102 l -1.78187,1.11099 h -6.93964 -6.939635 l -1.27783,-0.72852 c -0.70281,-0.40067 -1.55712,-0.90125 -1.89849,-1.1124 l -0.62066,-0.38391 -1.36971,2.09525 c -0.75334,1.1524 -2.10855,3.27265 -3.01158,4.71172 l -1.641861,2.61645 v 4.65657 4.65657 l 3.733801,3.70916 3.73383,3.70915 h 4.128905 4.12891 z m 2.40085,-6.14505 c 0.69975,-0.62527 0.83983,-1.60458 0.34291,-2.39727 -0.66817,-1.06587 -1.95172,-1.20655 -2.84632,-0.31196 -0.47643,0.47643 -0.58116,0.71054 -0.58116,1.29906 0,0.58853 0.10485,0.82262 0.58116,1.29905 0.76943,0.76943 1.71951,0.8116 2.50341,0.11121 z m -57.270125,2.70335 c -1.944001,-0.59134 -3.132481,-2.19764 -3.123503,-4.22159 0.013,-2.92505 3.004761,-4.96265 5.70199,-3.88344 l 0.70408,0.28172 3.609607,-3.6096 3.609606,-3.60961 -2.600902,-2.61189 -2.600901,-2.61189 0.04269,-6.7431 0.04269,-6.74309 1.794754,-1.60443 c 2.210215,-1.97584 5.080721,-4.14147 7.008084,-5.2872 1.933444,-1.14935 5.64186,-3.13152 6.944038,-3.71162 l 1.046989,-0.46641 5.191916,2.58605 c 4.962221,2.47165 5.280529,2.60399 7.194901,2.99159 1.101641,0.22305 2.082345,0.45458 2.179342,0.51453 0.097,0.06 0.176359,0.33846 0.176359,0.6189 0,1.55991 1.783004,7.40622 3.682308,12.07398 0.513028,1.2608 0.932772,2.36546 0.932772,2.45478 0,0.24227 -3.80287,6.34691 -4.922497,7.90191 -1.434292,1.99208 -2.928823,3.75355 -4.774355,5.62711 l -1.641611,1.66655 h -6.592847 -6.592848 l -2.523576,-2.51935 -2.523576,-2.51938 -3.578672,3.57564 -3.578675,3.57562 0.245865,0.58843 c 0.289429,0.69271 0.318255,2.07389 0.0625,2.99492 -0.279912,1.00802 -1.581,2.24515 -2.710722,2.57748 -0.988348,0.29072 -1.710868,0.32478 -2.40582,0.11342 z m 2.186127,-2.50006 c 0.994831,-0.69682 1.122272,-2.11578 0.269925,-3.00544 -1.247767,-1.30239 -3.309589,-0.43474 -3.309589,1.39274 0,0.58767 0.104923,0.82207 0.581158,1.29829 0.48391,0.48393 0.706363,0.58117 1.329397,0.58117 0.411533,0 0.919632,-0.12009 1.129109,-0.26676 z m 28.991085,-10.49672 c 0.991803,-1.12537 2.237544,-2.63333 2.768312,-3.35104 1.218094,-1.6471 4.685519,-7.07343 4.685519,-7.33258 0,-0.10686 -0.503771,-1.53612 -1.119501,-3.17611 -1.415517,-3.77024 -2.239959,-6.3851 -2.616746,-8.29943 l -0.295866,-1.50319 -1.250827,-0.22931 c -1.433301,-0.26278 -4.225362,-1.45091 -8.449207,-3.59546 l -2.878156,-1.46131 -0.967742,0.46975 c -4.220752,2.04877 -9.416718,5.51169 -12.392183,8.25895 l -0.784252,0.7241 -0.01981,5.59037 -0.01981,5.59038 2.083129,2.18924 c 1.145721,1.20408 2.171813,2.18923 2.280203,2.18923 0.108386,0 1.458093,-1.26275 2.99934,-2.80613 2.740145,-2.74392 2.798042,-2.81687 2.611666,-3.29038 -0.778104,-1.97687 0.04901,-4.24589 1.905924,-5.22853 0.547783,-0.28987 1.005755,-0.37657 2.005287,-0.37962 1.147764,-0.003 1.391228,0.0552 2.13661,0.51496 2.394704,1.47718 2.663047,4.84157 0.531677,6.66594 -0.399847,0.34226 -1.117122,0.72517 -1.65153,0.88164 -0.875538,0.25638 -1.025623,0.25556 -2.050095,-0.0121 l -1.105396,-0.28796 -2.863758,2.86808 -2.863759,2.86808 2.064171,2.09388 2.064172,2.09388 h 5.694678 5.694677 z M 72.8496,138.41204 c 0.474314,-0.4238 0.558216,-0.6148 0.558216,-1.27075 0,-1.8785 -2.334909,-2.63157 -3.408202,-1.09922 -0.323283,0.46154 -0.337101,1.43801 -0.02823,1.99527 0.545869,0.98487 1.985562,1.17229 2.878221,0.3747 z m 85.28676,22.78956 c -1.11747,-0.55686 -1.84791,-1.42954 -2.19803,-2.6261 -0.26878,-0.91859 -0.21519,-1.72094 0.20341,-3.04484 0.10675,-0.33785 -0.31944,-0.82028 -3.32298,-3.76094 l -3.44551,-3.3734 -2.3508,2.35079 -2.35079,2.35079 h -6.70239 -6.70239 l -1.00134,-1.0683 c -3.49446,-3.72816 -6.08222,-7.16696 -9.27843,-12.32995 l -1.1518,-1.86056 0.43366,-1.1307 c 1.72275,-4.49186 3.02194,-8.73689 3.71028,-12.1231 l 0.36882,-1.81442 1.70757,-0.28335 c 0.93916,-0.15584 2.04759,-0.37675 2.46318,-0.49091 0.87961,-0.24165 4.66131,-1.84981 8.2479,-3.5074 l 2.50824,-1.15921 2.61962,1.22967 c 5.47197,2.56859 8.81315,4.67849 13.08905,8.26551 l 1.41015,1.18298 v 6.60716 6.60717 l -2.6494,2.64525 c -1.45716,1.4549 -2.64939,2.72383 -2.64939,2.81987 0,0.0961 1.52288,1.69606 3.3842,3.55562 l 3.3842,3.38102 1.01722,-0.26803 c 0.62852,-0.1656 1.27848,-0.22568 1.70094,-0.15721 2.82451,0.4577 4.4601,3.4444 3.26759,5.96687 -1.04213,2.20438 -3.56804,3.10448 -5.71278,2.03572 z m 3.07419,-2.2345 c 1.00817,-0.91235 1.02548,-2.08813 0.0434,-2.95036 -1.02158,-0.89695 -2.48374,-0.61659 -3.05425,0.58569 -0.45342,0.95553 0.0298,2.2476 0.99522,2.66106 0.52649,0.22549 1.61594,0.0653 2.01558,-0.29639 z m -15.6645,-10.33411 2.00653,-2.04619 -2.71568,-2.76969 c -1.49363,-1.52334 -2.77728,-2.79665 -2.85256,-2.82956 -0.0754,-0.0329 -0.36737,0.0355 -0.64907,0.15227 -0.89532,0.37085 -2.44088,0.24317 -3.40445,-0.28127 -2.99111,-1.62797 -2.92182,-5.86687 0.12024,-7.35522 2.22158,-1.08692 4.86449,-0.11269 5.82549,2.14739 0.35029,0.82383 0.3389,2.36889 -0.0228,3.09397 l -0.29016,0.58162 2.82307,2.82305 2.82306,2.82306 2.30564,-2.30436 2.30565,-2.30436 0.004,-5.57927 0.004,-5.57926 -1.58108,-1.26194 c -3.7293,-2.97653 -5.84123,-4.3111 -10.12755,-6.39986 l -2.90579,-1.41602 -0.51278,0.30006 c -0.88557,0.51822 -5.56153,2.60116 -7.43542,3.31217 -0.98711,0.37453 -2.44854,0.81443 -3.24763,0.97753 l -1.45291,0.29654 -0.14972,0.66695 c -0.68717,3.05916 -1.88192,7.05246 -3.05424,10.20828 l -0.68705,1.84954 2.14058,3.19285 c 2.42911,3.62321 3.43188,4.96082 5.84088,7.79118 l 1.69738,1.99425 5.59254,-0.0188 5.59255,-0.0188 z m -4.38386,-9.98889 c 0.97091,-0.81697 0.85719,-2.34131 -0.22385,-3.00052 -1.01506,-0.61899 -2.24511,-0.24786 -2.75754,0.83198 -0.84504,1.78079 1.45447,3.45336 2.98139,2.16854 z m -39.89298,1.14632 -1.709275,-0.11042 -1.53835,-1.00247 c -0.8461,-0.55135 -2.39771,-1.6282 -3.44802,-2.393 l -1.90966,-1.39054 -0.72009,-2.22207 c -1.075231,-3.31803 -1.87043,-7.59313 -1.87043,-10.05581 v -1.00553 l 1.69706,-2.16113 c 0.9334,-1.18863 2.23223,-2.77893 2.88631,-3.53401 l 1.18924,-1.37288 -0.40978,-0.47642 -0.4098,-0.4764 -3.5034,2.78939 c -1.926875,1.53417 -3.689344,2.90194 -3.916602,3.03949 -0.821856,0.49743 -6.442459,-0.9854 -11.121877,-2.93417 l -1.36743,-0.56948 -1.334441,-1.96273 c -0.733941,-1.0795 -1.724158,-2.6045 -2.200481,-3.38889 l -0.866043,-1.42617 0.104422,-2.16334 c 0.05743,-1.18983 0.111291,-3.66968 0.119702,-5.51077 l 0.01527,-3.347442 1.118124,-1.609502 c 0.614969,-0.885227 1.677352,-2.378684 2.360853,-3.318794 l 1.242728,-1.709289 2.112939,-0.633186 c 3.586289,-1.074706 5.372302,-1.397605 8.87169,-1.60394 l 1.972748,-0.116313 3.476468,2.944511 c 3.38219,2.864658 3.48504,2.935937 3.79261,2.628373 0.30756,-0.307565 0.29009,-0.348552 -0.64391,-1.511395 -0.52801,-0.657391 -1.72768,-2.218176 -2.66592,-3.468411 l -1.705907,-2.273154 0.2809,-2.341306 c 0.403157,-3.360153 1.547367,-8.246784 2.289537,-9.777954 0.29868,-0.616228 3.05539,-2.949852 5.4851,-4.643293 l 1.263765,-0.880808 5.59857,-0.01497 5.59858,-0.01497 1.17131,0.801776 c 0.64423,0.440979 2.17423,1.600571 3.4,2.576875 l 2.2287,1.775097 0.54871,1.867032 c 0.77052,2.621744 1.3476,5.28859 1.65406,7.643983 0.40964,3.148319 0.46972,2.898749 -1.27184,5.283218 -0.84389,1.155386 -1.99348,2.686421 -2.55467,3.402299 l -1.02035,1.301597 0.47014,0.450425 c 0.25857,0.247733 0.52469,0.450425 0.59139,0.450425 0.0667,0 1.52392,-1.235735 3.23829,-2.746075 l 3.11705,-2.746074 3.0767,0.09082 c 3.38352,0.09987 4.71647,0.332311 8.07117,1.407443 2.22395,0.712747 1.84674,0.352963 5.06685,4.832771 l 1.64734,2.291778 v 5.539453 c 0,3.81796 -0.0607,5.65548 -0.19507,5.9128 -0.38229,0.73167 -2.28406,3.64168 -3.18789,4.878 -0.81995,1.12155 -1.05094,1.31748 -2.14385,1.81849 -2.90497,1.33168 -6.59533,2.48534 -9.89582,3.09357 l -1.49193,0.27493 -1.49932,-1.16207 c -0.82463,-0.63913 -2.44951,-1.9298 -3.61082,-2.86815 -1.67178,-1.35078 -2.16801,-1.67043 -2.38283,-1.53491 -0.14927,0.0942 -0.29779,0.25045 -0.33009,0.34739 -0.0324,0.097 0.58416,0.97599 1.36993,1.95346 0.78578,0.97749 2.00864,2.55707 2.71744,3.5102 1.28656,1.73 1.28864,1.73453 1.21238,2.6494 -0.30757,3.69022 -1.08777,7.33949 -2.26376,10.58866 l -0.53118,1.46763 -2.0024,1.45886 c -1.1013,0.80236 -2.67057,1.89352 -3.48726,2.42477 l -1.48489,0.96592 -4.32669,0.0639 c -2.37968,0.0352 -5.09588,0.0143 -6.036,-0.0465 z m 10.87802,-3.63936 c 0.87989,-0.57775 2.19229,-1.50146 2.91644,-2.05269 l 1.31663,-1.00224 0.61242,-1.89441 c 0.72878,-2.25429 1.06347,-3.63619 1.38271,-5.70884 0.43117,-2.79935 0.48618,-2.61585 -1.6193,-5.40003 -1.0243,-1.35449 -2.08708,-2.72516 -2.36175,-3.04595 l -0.49938,-0.58326 -1.61236,0.4484 c -2.59789,0.7225 -3.68333,0.86978 -6.39834,0.86813 -2.72265,-0.001 -5.12171,-0.38028 -6.932845,-1.09416 -0.47138,-0.1858 -0.92006,-0.33782 -0.99704,-0.33782 -0.1819,0 -2.54834,2.74191 -4.033,4.67286 l -1.16151,1.51069 0.11206,1.56603 c 0.14246,1.98943 0.59962,4.20578 1.42345,6.90053 0.74293,2.43009 0.46666,2.12872 4.43643,4.83956 l 1.996925,1.36365 h 4.9093 4.90931 z m 15.71356,-19.79236 c 1.81936,-0.44621 5.9264,-1.95715 6.74374,-2.48097 0.19031,-0.12196 1.07488,-1.32071 1.96568,-2.66388 l 1.61965,-2.44211 -0.0239,-4.75679 -0.0239,-4.756793 -1.83318,-2.455014 -1.8332,-2.455016 -2.24518,-0.709759 c -2.38157,-0.752881 -3.56716,-0.96409 -6.39638,-1.1395 l -1.75822,-0.109008 -1.31849,1.152717 c -0.72519,0.633994 -2.00317,1.790727 -2.83997,2.570519 l -1.52145,1.417801 0.40749,2.27236 c 0.51754,2.886003 0.55423,6.870043 0.0862,9.365913 -0.59617,3.17954 -0.66906,2.83224 0.86507,4.12303 0.73825,0.62113 2.11144,1.72009 3.05155,2.44213 1.96654,1.51037 1.61762,1.46727 5.05452,0.62437 z m -38.417426,-1.75181 c 4.117271,-3.30428 3.871321,-3.07296 3.873171,-3.64297 9.2e-4,-0.28203 -0.11161,-1.35888 -0.24998,-2.393 -0.3823,-2.85657 -0.32952,-5.44947 0.17108,-8.40466 0.23616,-1.394138 0.47056,-2.664569 0.5209,-2.823184 0.0669,-0.210738 -0.5438,-0.832105 -2.26781,-2.307542 -1.297624,-1.110531 -2.690524,-2.279336 -3.09533,-2.597346 l -0.73602,-0.578198 -2.176171,0.188514 c -1.196897,0.103687 -2.749762,0.307342 -3.450811,0.452578 -1.677104,0.347448 -4.447494,1.253817 -4.807985,1.572998 -0.157135,0.139134 -1.035167,1.30151 -1.951182,2.583072 l -1.665484,2.330115 -0.07996,4.712883 -0.07996,4.71288 1.689283,2.60026 1.689286,2.60024 2.563933,1.00272 c 2.152001,0.84163 3.517546,1.24242 6.666227,1.9566 0.188022,0.0426 0.44294,0.0865 0.566485,0.0974 0.123543,0.0111 1.392686,-0.9176 2.820324,-2.06334 z m 17.606016,0.29715 c 0.85176,-0.30377 1.29087,-0.7092 1.67563,-1.5471 0.37498,-0.81661 0.3918,-1.4711 0.0616,-2.39302 l -0.24496,-0.68371 1.42584,-1.42855 c 1.32154,-1.32405 1.45425,-1.41336 1.81402,-1.2208 0.23318,0.1248 0.81441,0.18061 1.4555,0.13978 1.80022,-0.11463 2.8697,-1.22967 2.85402,-2.97557 -0.0206,-2.28166 -1.95164,-3.46395 -4.43034,-2.71237 -0.30979,0.094 -0.6275,-0.12876 -1.77993,-1.24766 l -1.40282,-1.362013 0.28431,-0.710582 c 0.36624,-0.915327 0.35471,-1.643195 -0.0397,-2.51185 -1.01233,-2.228947 -4.27619,-2.361578 -5.47833,-0.222621 -0.40043,0.712436 -0.47711,2.250651 -0.14822,2.972493 0.19275,0.42301 0.1346,0.51317 -1.17815,1.825913 -1.36695,1.36693 -1.38657,1.37896 -1.937555,1.18688 -1.81035,-0.63109 -3.62113,0.2843 -4.11167,2.07854 -0.36657,1.3408 0.31798,2.80507 1.63204,3.49098 0.59289,0.30947 2.12222,0.33462 2.665565,0.0438 0.34891,-0.18673 0.49325,-0.0904 1.75491,1.17127 l 1.37473,1.37472 -0.20131,0.67189 c -0.28987,0.96749 -0.24841,1.83549 0.12234,2.56197 0.75583,1.48089 2.24637,2.06332 3.83267,1.49757 z m -4.26563,-6.97169 c -1.3795,-1.40341 -1.38704,-1.4159 -1.1601,-1.92536 0.3076,-0.69059 0.30009,-1.67105 -0.0186,-2.43387 l -0.26246,-0.62814 1.36828,-1.36828 1.36828,-1.36828 0.57287,0.20715 c 0.71922,0.26008 1.78271,0.26564 2.5071,0.0132 0.55071,-0.19198 0.5711,-0.17956 1.92129,1.17063 l 1.36466,1.36467 -0.28132,0.82859 c -0.28582,0.84184 -0.23905,1.85862 0.1166,2.53493 0.1417,0.26936 -0.0456,0.53645 -1.17361,1.67367 -1.04481,1.05338 -1.41791,1.3301 -1.68402,1.24904 -1.357,-0.41332 -2.02698,-0.41622 -2.99263,-0.013 -0.1749,0.073 -0.70412,-0.34646 -1.64627,-1.30494 z m -2.28371,-15.956764 c 3.63022,-0.953804 7.38545,-0.924783 11.31624,0.08746 l 1.83004,0.47126 0.8339,-1.040923 c 0.45864,-0.572506 1.4311,-1.876165 2.16101,-2.897019 l 1.32713,-1.8561 -0.19378,-1.647942 c -0.26288,-2.235637 -0.74962,-4.533267 -1.42343,-6.71927 l -0.56214,-1.823675 -1.44831,-1.172472 c -0.79657,-0.64486 -1.94817,-1.554862 -2.55908,-2.022226 l -1.11077,-0.849752 -4.74148,-0.06043 -4.7415,-0.06043 -1.18263,0.876718 c -2.997465,2.222115 -4.205105,3.290335 -4.428855,3.917528 -0.43251,1.212386 -1.36046,5.258891 -1.55453,6.778867 -0.10799,0.846096 -0.22729,1.782939 -0.26501,2.08187 -0.0779,0.616742 0.62654,1.733247 3.0341,4.809574 1.14449,1.462421 1.44038,1.745651 1.73273,1.658602 0.19389,-0.05774 1.08327,-0.296962 1.976365,-0.531616 z M 45.844074,121.4915 c -0.821795,-0.7436 -2.858399,-2.72424 -4.525788,-4.40142 l -3.031617,-3.04944 -0.04509,-4.95693 -0.04509,-4.95694 -5.230653,-0.0452 -5.230655,-0.0452 -0.580928,0.98034 c -0.800091,1.35018 -1.838141,1.98389 -3.393717,2.07179 -3.528983,0.1994 -5.700174,-3.32666 -3.942952,-6.40343 1.099801,-1.925688 3.603651,-2.642043 5.626884,-1.609863 0.803633,0.40998 1.817557,1.554853 2.079246,2.347783 l 0.191307,0.57967 5.240734,-0.049 5.240734,-0.049 0.09464,-4.956936 c 0.05205,-2.726316 0.109754,-4.989215 0.1282,-5.028663 0.01846,-0.03946 2.010896,-2.058546 4.42765,-4.486884 l 4.394101,-4.415159 h 5.056885 5.056886 l 2.817939,1.756491 c 3.898559,2.430068 10.716719,7.165246 11.017152,7.651358 0.05791,0.0937 -0.553914,1.27602 -1.359608,2.627378 l -1.464896,2.457016 v 6.087179 6.08718 l 1.196502,2.13492 c 0.658077,1.17421 1.196502,2.17668 1.196502,2.22773 0,0.12453 -6.872838,4.63469 -10.582129,6.9443 l -2.975794,1.85289 h -4.931125 -4.931125 z m 14.985489,-3.97476 c 2.405516,-1.51954 4.894997,-3.10471 5.532177,-3.52261 l 1.158511,-0.75981 -0.881328,-1.63486 -0.88133,-1.63486 0.07558,-6.62973 0.07558,-6.629741 1.064616,-1.737441 c 0.585539,-0.955593 1.042137,-1.755872 1.014664,-1.778397 -1.047698,-0.858987 -6.777426,-4.71783 -9.263256,-6.238596 l -2.03429,-1.244527 -4.204614,-0.07891 -4.204616,-0.07891 -3.701433,3.734022 -3.701433,3.734025 -0.04924,2.393004 c -0.02708,1.316153 -0.03441,3.296791 -0.01627,4.401418 l 0.03298,2.008423 3.632239,-0.007 3.63224,-0.007 0.398076,-0.8487 c 0.870553,-1.856033 3.391039,-2.735134 5.328042,-1.858323 1.665846,0.75407 2.468316,1.999913 2.468316,3.832073 0,0.89254 -0.09243,1.3702 -0.363859,1.88022 -1.095565,2.05864 -3.520357,2.87858 -5.620612,1.9006 -0.893496,-0.41605 -1.890592,-1.43775 -2.063348,-2.11426 -0.098,-0.38379 -0.105836,-0.38459 -3.754653,-0.38459 h -3.656441 l -0.01467,1.58109 c -0.008,0.8696 -0.0062,2.85023 0.0042,4.40142 l 0.01895,2.82033 3.713421,3.62468 3.713423,3.62467 4.087315,0.008 4.087316,0.008 z M 24.422125,104.64709 c 0.509057,-0.26325 1.040133,-1.17917 1.040133,-1.79388 0,-1.02659 -0.979152,-1.88863 -2.145215,-1.88863 -0.926973,0 -1.786148,0.90161 -1.786148,1.87437 0,0.89154 0.21607,1.30158 0.908285,1.72365 0.648969,0.3957 1.325385,0.42452 1.982945,0.0845 z m 28.557799,-0.006 c 1.90539,-0.98532 0.908409,-3.98545 -1.185263,-3.56672 -0.700179,0.14005 -1.547711,1.11774 -1.547711,1.78542 0,1.50488 1.445547,2.44705 2.732974,1.7813 z m 99.055176,16.8076 c -6.78516,-3.96017 -11.19139,-6.66749 -11.19396,-6.87791 -0.001,-0.0848 0.3343,-0.73857 0.7452,-1.4529 0.41088,-0.71431 0.99897,-1.79872 1.30686,-2.40979 l 0.55979,-1.11104 -0.12068,-5.97705 -0.12069,-5.977051 -0.62289,-1.031036 c -0.34259,-0.56707 -0.99179,-1.59856 -1.44263,-2.292201 -0.45086,-0.69364 -0.81524,-1.347445 -0.80974,-1.452897 0.0173,-0.330342 5.94639,-4.585214 10.50652,-7.539634 l 3.4142,-2.211979 4.14953,-0.06824 c 2.28225,-0.03752 4.65405,-0.01422 5.27068,0.05184 l 1.12112,0.120065 4.34149,4.358695 4.34148,4.358695 0.0454,4.899028 0.0454,4.899035 5.40287,0.0451 5.40287,0.0451 0.29284,-0.76679 c 0.35856,-0.93889 1.67306,-2.169353 2.6209,-2.453333 2.97604,-0.891646 5.68096,1.02415 5.68096,4.023613 0,1.78364 -0.72285,3.05983 -2.18335,3.85474 -1.82557,0.99359 -3.72405,0.72723 -5.17773,-0.72646 -0.45615,-0.45615 -0.87935,-1.0285 -0.94043,-1.2719 l -0.11097,-0.44253 h -5.53667 -5.53665 v 5.00092 5.00092 l -4.35972,4.35744 -4.35971,4.35743 -5.16957,0.0434 -5.16957,0.0434 z m 15.25394,-4.79933 3.63371,-3.63076 v -4.48836 -4.48838 h -3.57099 -3.57097 l -0.10976,0.43743 c -0.1745,0.69528 -1.3914,1.88154 -2.35563,2.29634 -2.03841,0.8769 -4.52501,-0.0963 -5.45643,-2.13552 -0.38778,-0.84899 -0.41411,-2.43426 -0.0548,-3.29587 0.80868,-1.938883 3.16829,-3.020168 5.23769,-2.400163 0.84429,0.25296 2.099,1.345393 2.54153,2.212813 l 0.33819,0.66289 h 1.93594 c 1.06477,0 2.64003,-0.05 3.50057,-0.11106 l 1.56463,-0.11107 v -4.288908 -4.288901 l -3.63076,-3.633697 -3.63075,-3.633697 h -4.36493 -4.36493 l -3.39926,2.232806 c -3.66538,2.407585 -7.76291,5.300582 -7.77784,5.491417 -0.004,0.06483 0.44475,0.84581 0.9996,1.735498 l 1.00885,1.617609 0.0749,6.713453 0.0749,6.71345 -0.9135,1.74949 -0.91351,1.74948 3.29114,1.95853 c 1.81015,1.07719 4.02188,2.37972 4.91497,2.89452 0.89311,0.51479 1.89304,1.10116 2.22208,1.30305 0.56989,0.34966 0.80072,0.3671 4.87001,0.36771 l 4.27178,6.3e-4 z m -6.34609,-12.28401 c 0.61302,-0.5759 0.8162,-1.37311 0.52525,-2.06085 -0.59285,-1.40131 -2.0142,-1.67979 -3.14884,-0.61692 -1.23261,1.15463 -0.0642,3.37992 1.64571,3.13471 0.31902,-0.0457 0.75906,-0.25137 0.97788,-0.45694 z m 28.98343,-0.0896 c 0.91153,-0.81193 0.96903,-2.0817 0.13475,-2.97485 -0.39949,-0.42764 -0.60335,-0.50668 -1.30682,-0.50668 -0.94126,0 -1.47157,0.29442 -1.85065,1.02746 -0.49406,0.95539 -0.16716,2.14092 0.72957,2.64599 0.59905,0.3374 1.813,0.2358 2.29319,-0.19192 z m -56.4553,-15.881202 c -5.03175,-2.009535 -6.04287,-2.289555 -8.29362,-2.296832 -0.63095,-0.002 -1.11391,-0.08834 -1.21471,-0.217046 -0.0922,-0.117508 -0.25924,-0.713629 -0.37154,-1.324699 -0.30662,-1.668552 -1.06845,-4.071887 -2.77777,-8.763138 -1.39591,-3.83107 -1.52466,-4.284858 -1.35429,-4.773548 0.20309,-0.582622 2.2736,-4.446784 3.64565,-6.803855 1.95981,-3.366824 4.44996,-6.671324 7.0514,-9.357464 l 1.53836,-1.588446 6.06929,-0.109042 c 3.33812,-0.06004 6.3761,-0.05142 6.75107,0.0189 0.56589,0.10617 1.0099,0.451657 2.61236,2.032677 l 1.93062,1.904794 4.45697,-4.473274 4.45697,-4.473259 -0.27624,-0.810729 c -0.84358,-2.47579 0.36755,-4.939768 2.77426,-5.644105 3.06537,-0.897083 5.98751,1.82644 5.32538,4.963405 -0.51932,2.460318 -2.93593,3.843056 -5.51225,3.153993 l -0.73079,-0.195453 -4.3568,4.393998 c -2.39624,2.416687 -4.38693,4.47949 -4.42373,4.584007 -0.0367,0.104501 1.2131,1.434142 2.77759,2.954759 l 2.84452,2.76475 v 6.610344 6.610344 l -1.49563,1.421786 c -3.91633,3.722972 -6.52195,5.740842 -10.58446,8.19692 -1.52567,0.92237 -5.74093,3.203375 -5.88237,3.183131 -0.0387,-0.0056 -2.27091,-0.888863 -4.96024,-1.96291 z m 7.34639,-2.242662 c 4.9911,-2.806703 8.21313,-5.13218 11.91067,-8.596427 l 1.03489,-0.969596 0.0434,-5.544233 0.0434,-5.544229 -2.49856,-2.478467 -2.49853,-2.478481 -2.6206,2.734867 c -2.60837,2.722117 -2.61947,2.737044 -2.38006,3.20198 0.92317,1.792696 0.061,4.309086 -1.82822,5.33537 -2.12429,1.154047 -4.69405,0.352313 -5.81014,-1.812703 -1.03441,-2.006565 -0.13172,-4.5932 1.9555,-5.603617 0.80565,-0.390016 2.48519,-0.478638 3.28779,-0.173496 0.43752,0.166341 0.54273,0.10587 1.56261,-0.897386 0.60145,-0.591638 1.79638,-1.83438 2.65541,-2.761634 l 1.56188,-1.685915 -1.56593,-1.518999 -1.56594,-1.518999 h -5.7231 -5.72307 l -0.98333,1.03091 c -3.00316,3.148489 -6.28875,8.018009 -8.84735,13.112496 l -0.78635,1.565745 0.86621,2.358423 c 1.39687,3.80323 2.66718,7.612109 2.87895,8.632198 l 0.19678,0.947901 1.36966,0.119475 c 1.58203,0.138 1.86901,0.233244 6.90505,2.291669 2.06823,0.845369 3.86601,1.542883 3.99504,1.550029 0.129,0.0071 1.2828,-0.576451 2.56393,-1.296884 z m 0.4662,-16.706031 c 0.78235,-0.782355 0.81277,-1.718177 0.0824,-2.535591 -0.43877,-0.491069 -0.60282,-0.558216 -1.36355,-0.558216 -1.13175,0 -1.7239,0.538283 -1.8531,1.684548 -0.0815,0.723153 -0.0412,0.831955 0.51442,1.38755 0.49849,0.498485 0.72717,0.602868 1.32077,0.602868 0.58852,0 0.82262,-0.104734 1.29906,-0.581159 z m 21.00259,-21.808794 c 0.80447,-0.305853 1.28654,-0.994765 1.28654,-1.838539 0,-0.6379 -0.0942,-0.855524 -0.58117,-1.34248 -0.4486,-0.448601 -0.72343,-0.581157 -1.20499,-0.581157 -2.1647,0 -2.9734,2.71516 -1.08577,3.64544 0.65945,0.325 0.97628,0.34832 1.58539,0.116751 z M 70.331095,88.603392 C 64.715772,85.647623 61.313543,83.237633 57.126838,79.250075 L 55.545746,77.744189 V 71.11433 64.484468 l 2.90041,-2.897442 2.90041,-2.897442 -2.857677,-3.00264 c -6.181248,-6.49482 -5.703785,-6.048123 -6.244652,-5.842264 -0.746535,0.284121 -2.339543,0.214403 -3.108325,-0.13611 -1.676252,-0.76412 -2.478469,-2.017463 -2.478469,-3.872199 0,-1.795725 0.761143,-3.078377 2.30754,-3.888608 0.969422,-0.507931 2.817014,-0.510214 3.772096,-0.0046 1.99459,1.055803 2.856434,3.319897 2.058787,5.4085 -0.292937,0.767037 -0.292242,0.806434 0.02124,1.204963 0.665687,0.846284 7.941074,8.395637 8.134067,8.440372 0.110512,0.02556 1.045696,-0.801263 2.078213,-1.837481 l 1.877303,-1.88406 h 6.689194 6.689196 l 1.262696,1.32473 c 2.954035,3.099097 5.215003,6.140467 7.447259,10.017793 1.60009,2.779253 3.471351,6.504547 3.471351,6.91069 0,0.170786 -0.77543,2.380679 -1.723174,4.910876 -1.678157,4.48016 -2.409111,6.830994 -2.64694,8.512842 -0.143368,1.014462 -0.232248,1.054369 -2.707677,1.216643 -1.774007,0.116298 -2.105725,0.205394 -6.837157,1.836487 -2.734981,0.942845 -5.164987,1.746498 -5.400013,1.785894 -0.294734,0.04941 -1.169827,-0.319203 -2.820329,-1.187986 z m 3.938142,-1.920069 c 0.637182,-0.239837 2.824128,-1.000914 4.85988,-1.691286 2.946875,-0.999353 4.000254,-1.280118 5.16764,-1.377361 l 1.466275,-0.122135 0.195925,-0.995877 c 0.244802,-1.244303 0.67718,-2.524768 2.442381,-7.232998 l 1.400917,-3.7366 -1.051417,-2.077085 c -2.28384,-4.51169 -4.715841,-8.178515 -7.833064,-11.810192 l -1.527446,-1.779529 -5.726118,-0.0046 -5.726119,-0.0046 -1.61864,1.511875 -1.61864,1.511877 1.392189,1.516503 c 0.765704,0.834066 1.960845,2.077563 2.655869,2.763314 1.187476,1.171632 1.291994,1.236057 1.733207,1.068309 0.606557,-0.230615 2.169276,-0.22951 2.786416,0.0016 2.804923,1.052067 3.685411,4.526685 1.7156,6.770177 -2.049301,2.334024 -6.017447,1.545559 -7.019303,-1.394727 -0.356995,-1.047721 -0.356937,-1.698523 2.5e-4,-2.80449 l 0.283341,-0.877317 -2.367695,-2.432688 c -1.302234,-1.337988 -2.465568,-2.542755 -2.585186,-2.677292 -0.183206,-0.20604 -0.608612,0.157706 -2.69875,2.307543 l -2.481262,2.552131 -0.0029,5.475078 -0.0029,5.475076 0.982842,0.945997 c 3.354924,3.229155 6.550843,5.505376 11.580433,8.247908 1.316152,0.717671 2.403076,1.305456 2.415386,1.30619 0.01224,7.31e-4 0.543712,-0.194898 1.180896,-0.434732 z M 73.030534,69.681965 c 0.525954,-0.413716 0.861614,-1.334495 0.708649,-1.943962 -0.147497,-0.587661 -1.174936,-1.471951 -1.710236,-1.471951 -1.358569,0 -2.352179,1.272717 -1.948509,2.495854 0.26734,0.810045 0.910383,1.264589 1.789019,1.264589 0.466127,0 0.878722,-0.122439 1.161077,-0.34453 z M 51.783422,47.550279 c 0.712502,-0.368449 1.027462,-0.911285 1.027462,-1.770847 0,-0.642816 -0.08982,-0.838406 -0.610422,-1.329399 -0.481556,-0.454167 -0.75346,-0.575713 -1.287981,-0.575713 -0.797201,0 -1.44046,0.375617 -1.785306,1.042479 -0.8961,1.732857 0.918626,3.532031 2.656247,2.63348 z M 92.687405,66.222436 C 89.695651,61.649334 88.007074,58.965342 87.112594,57.36129 L 86.483878,56.233818 V 50.577827 44.92182 l 3.347564,-3.472264 c 1.841173,-1.909754 3.908253,-4.029934 4.593533,-4.711511 l 1.24595,-1.239233 h 4.551175 4.55116 v -5.11429 -5.11429 l -0.50127,-0.110099 c -0.6969,-0.153063 -2.04899,-1.389589 -2.4253,-2.217982 -0.36211,-0.797194 -0.41959,-2.373011 -0.12264,-3.363919 0.46728,-1.559666 2.30137,-2.876679 4.01062,-2.87993 1.70291,-0.003 3.12622,0.78372 3.94906,2.183456 0.41224,0.701328 0.47348,0.983907 0.47088,2.173565 -0.003,1.071289 -0.0835,1.518999 -0.37451,2.067324 -0.45374,0.854693 -1.35813,1.673242 -2.17513,1.968676 l -0.60958,0.220421 v 5.093541 5.093526 h 4.49159 c 3.57224,0 4.5606,0.04884 4.82875,0.238963 0.33092,0.234563 3.18,3.115172 7.13948,7.218485 l 2.00051,2.073193 v 5.496092 c 0,6.359618 0.23607,5.368982 -2.2683,9.518542 -2.93208,4.858238 -6.39739,10.074421 -6.67728,10.051061 -0.11054,-0.0092 -1.11753,-0.605337 -2.23785,-1.324699 l -2.03695,-1.307933 h -6.26115 -6.261135 l -2.18307,1.367431 c -1.2007,0.752087 -2.19661,1.367055 -2.21314,1.366594 -0.0165,-4.6e-4 -1.19976,-1.788803 -2.62938,-3.974105 z m 4.99995,-0.383738 1.49742,-0.940109 h 6.764255 6.76425 l 1.60041,0.968269 c 1.2823,0.775825 1.62974,0.920222 1.74797,0.726447 0.0813,-0.132933 1.23262,-1.972486 2.55881,-4.08772 1.32618,-2.11525 2.82975,-4.55553 3.34125,-5.422851 l 0.93001,-1.576951 v -4.72175 -4.721766 l -3.87146,-3.999763 -3.87148,-3.999764 h -4.07672 -4.07674 v 3.845022 3.845038 l 0.77026,0.362052 c 3.02839,1.423525 3.05393,5.972234 0.0422,7.521268 -2.71164,1.3947 -6.01518,-0.637537 -5.99895,-3.690372 0.003,-0.565958 0.12325,-1.303824 0.26706,-1.639698 0.36397,-0.849717 1.2598,-1.825064 2.04344,-2.224848 l 0.66042,-0.336932 -0.046,-3.798034 -0.046,-3.798034 -4.01685,-0.0437 -4.016805,-0.04371 -3.80267,3.975083 -3.802657,3.975067 -5e-4,4.774242 -5.14e-4,4.774244 1.064726,1.806523 c 1.547585,2.625767 5.889105,9.412844 6.021145,9.412844 0.031,0 0.73009,-0.423043 1.55367,-0.940094 z M 107.26882,51.1559 c 0.65459,-0.654597 0.75426,-1.323168 0.32187,-2.159304 -0.27933,-0.540159 -1.04184,-1.019976 -1.62093,-1.019976 -0.50173,0 -1.29656,0.439271 -1.61344,0.8917 -0.1467,0.209473 -0.26405,0.652191 -0.26072,0.983816 0.0121,1.175231 0.72464,1.867727 1.93398,1.878857 0.52493,0.0046 0.77566,-0.111459 1.23924,-0.575093 z m -0.73805,-28.19678 c 0.76795,-0.325029 1.16218,-0.824854 1.26701,-1.60632 0.16952,-1.263976 -0.7412,-2.263171 -2.06281,-2.263171 -0.77254,0 -1.57717,0.672638 -1.83532,1.534274 -0.26117,0.871691 0.18411,1.83881 1.04453,2.26863 0.72079,0.36007 0.87764,0.366664 1.58659,0.06654 z"
         id="path2" /></g></g><metadata
     id="metadata1"><rdf:RDF><cc:Work
         rdf:about=""><dc:creator><cc:Agent><dc:title>Joe Lopes</dc:title></cc:Agent></dc:creator><dc:title>Lantana Logo</dc:title><dc:rights><cc:Agent><dc:title>CC BY 4.0</dc:title></cc:Agent></dc:rights><dc:publisher><cc:Agent><dc:title>https://lopes.id</dc:title></cc:Agent></dc:publisher></cc:Work></rdf:RDF></metadata></svg>
